<svg id="a7998d10-ee9f-46f4-af4a-7214f2ce02df" data-name="Layer 1" xmlns="http://www.w3.org/2000/svg" viewBox="0 0 603.04 141.82"><defs><style>.fd682885-e44c-4083-a700-5011d4a99f8c{fill:#ea3939;}.b0d550c0-8b79-440d-9e6f-ca24d7aa622f{fill:#80d3f1;}</style></defs><title>activityup</title><path class="fd682885-e44c-4083-a700-5011d4a99f8c" d="M63.78,275.88,28.32,367.79H46.5l7.55-19H91.56l7.17,19H116.9L81.45,275.88Zm-3.2,55.81L72.74,300.2,84.9,331.69Z" transform="translate(-28.32 -250.8)"/><path class="fd682885-e44c-4083-a700-5011d4a99f8c" d="M154.15,313.64c7.42,0,12.16,2.56,17,7.68l14.21-7.81c-6.78-10-18-15.48-31.36-15.48-22.53,0-38.4,15.61-38.4,36,0,19.84,15,35.58,38.15,35.58,13.31,0,23.55-4.74,30.85-14.21l-13.45-9.21c-4.22,5.24-10.24,7.8-17.79,7.8-12.54,0-20.61-8.19-20.61-19.71C132.77,322.48,141.09,313.64,154.15,313.64Z" transform="translate(-28.32 -250.8)"/><polygon class="fd682885-e44c-4083-a700-5011d4a99f8c" points="188.29 23.93 171.26 23.93 171.26 49.02 162.56 49.02 162.56 63.61 171.26 63.61 171.26 116.99 188.29 116.99 188.29 63.61 198.4 63.61 198.4 49.02 188.29 49.02 188.29 23.93"/><path class="fd682885-e44c-4083-a700-5011d4a99f8c" d="M247.46,271.78a10.6,10.6,0,0,0-10.88,10.37c0,6.28,4.61,11.78,10.88,11.78a10.87,10.87,0,0,0,10.88-10.88A11,11,0,0,0,247.46,271.78Z" transform="translate(-28.32 -250.8)"/><rect class="fd682885-e44c-4083-a700-5011d4a99f8c" x="210.69" y="49.02" width="17.02" height="67.97"/><polygon class="fd682885-e44c-4083-a700-5011d4a99f8c" points="272.64 89.08 255.49 49.02 238.08 49.02 267.13 116.99 278.14 116.99 307.07 49.02 289.79 49.02 272.64 89.08"/><rect class="fd682885-e44c-4083-a700-5011d4a99f8c" x="315" y="49.02" width="17.02" height="67.97"/><path class="fd682885-e44c-4083-a700-5011d4a99f8c" d="M351.78,271.78a10.6,10.6,0,0,0-10.88,10.37c0,6.28,4.6,11.78,10.88,11.78a10.87,10.87,0,0,0,10.88-10.88A11,11,0,0,0,351.78,271.78Z" transform="translate(-28.32 -250.8)"/><polygon class="fd682885-e44c-4083-a700-5011d4a99f8c" points="372.22 23.93 355.19 23.93 355.19 49.02 346.49 49.02 346.49 63.61 355.19 63.61 355.19 116.99 372.22 116.99 372.22 63.61 382.33 63.61 382.33 49.02 372.22 49.02 372.22 23.93"/><polygon class="fd682885-e44c-4083-a700-5011d4a99f8c" points="422.27 91.64 404.6 49.02 387.19 49.02 413.05 111.87 399.1 141.82 416.63 141.82 459.39 49.02 441.85 49.02 422.27 91.64"/><path class="b0d550c0-8b79-440d-9e6f-ca24d7aa622f" d="M540.74,335.66c0,4.86-.25,9.09-2.17,12-2.18,3.46-6.66,5.51-11.65,5.51-8.45,0-13.31-5.12-13.31-15.11V275.88H496.07v57.48c0,11.9,1,20.22,8.45,27.9,5.76,6,13.31,8.7,22.78,8.7,10,0,17.67-2.94,23.55-9.72,6.92-8.07,7.43-15.75,7.43-25.86v-58.5H540.74Z" transform="translate(-28.32 -250.8)"/><polygon class="b0d550c0-8b79-440d-9e6f-ca24d7aa622f" points="565.45 116.99 565.45 25.08 565.45 19.41 569.79 19.41 571.87 19.41 556.85 0 541.84 19.41 548.26 19.41 548.26 32.17 548.26 32.17 548.26 116.99 565.45 116.99"/><path class="b0d550c0-8b79-440d-9e6f-ca24d7aa622f" d="M623.94,283.31c-5.73-5.61-14-7.41-25.82-7.43V293h3.42c8.32,0,12.67,3.33,12.67,9.48s-4,9.34-11.9,9.34h-4.19v17c7.91-.06,14.9-.54,21.6-4.6,7.68-4.74,11.65-12,11.65-21.76C631.37,294.7,628.42,287.66,623.94,283.31Z" transform="translate(-28.32 -250.8)"/></svg>